<svg xmlns="http://www.w3.org/2000/svg" width="10.473" height="19.416" viewBox="0 0 10.473 19.416"><defs><style>.a{fill:#e2886c;}</style></defs><path class="a" d="M31.316,21.059H28.91c-.389,0-.51-.146-.51-.51v-2.94c0-.389.146-.51.51-.51h2.406V14.96a5.4,5.4,0,0,1,.656-2.746,4.032,4.032,0,0,1,2.163-1.8,5.406,5.406,0,0,1,1.871-.316h2.381c.34,0,.486.146.486.486v2.77c0,.34-.146.486-.486.486-.656,0-1.312,0-1.968.024a.877.877,0,0,0-1,1c-.024.729,0,1.434,0,2.187h2.819c.389,0,.535.146.535.535v2.94c0,.389-.122.51-.535.51H35.423v7.922c0,.413-.121.559-.559.559H31.826c-.364,0-.51-.146-.51-.51V21.059Z" transform="translate(-28.4 -10.1)"/></svg>