<svg xmlns="http://www.w3.org/2000/svg" width="23.442" height="15" viewBox="0 0 23.442 15"><defs><style>.a{fill:#e2886c;}</style></defs><path class="a" d="M8.225,91.567h3.663a4.656,4.656,0,1,1-1.264-4.993.5.5,0,0,0,.686,0l1.345-1.266a.5.5,0,0,0,0-.731,7.472,7.472,0,0,0-5.007-2.053,7.5,7.5,0,1,0,7.338,7.92c.006-.049.01-1.721.01-1.721H8.225a.5.5,0,0,0-.5.5v1.842A.5.5,0,0,0,8.225,91.567Z" transform="translate(0 -82.519)"/><path class="a" d="M328.495,165.448v-1.8a.44.44,0,0,0-.44-.44H326.54a.44.44,0,0,0-.44.44v1.8h-1.8a.44.44,0,0,0-.44.44V167.4a.44.44,0,0,0,.44.44h1.8v1.8a.44.44,0,0,0,.44.44h1.514a.44.44,0,0,0,.44-.44v-1.8h1.8a.44.44,0,0,0,.44-.44v-1.514a.44.44,0,0,0-.44-.44Z" transform="translate(-307.292 -159.08)"/></svg>