<svg xmlns="http://www.w3.org/2000/svg" width="19.854" height="16.131" viewBox="0 0 19.854 16.131"><defs><style>.a{fill:#e2886c;}</style></defs><path class="a" d="M19.854,49.91a8.486,8.486,0,0,1-2.345.643A4.047,4.047,0,0,0,19.3,48.3a8.134,8.134,0,0,1-2.581.985,4.07,4.07,0,0,0-7.041,2.783A4.191,4.191,0,0,0,9.772,53a11.521,11.521,0,0,1-8.389-4.257,4.071,4.071,0,0,0,1.251,5.44,4.019,4.019,0,0,1-1.839-.5v.045a4.089,4.089,0,0,0,3.261,4,4.062,4.062,0,0,1-1.067.134,3.6,3.6,0,0,1-.771-.069,4.109,4.109,0,0,0,3.8,2.835A8.178,8.178,0,0,1,.974,62.361,7.623,7.623,0,0,1,0,62.3a11.458,11.458,0,0,0,6.244,1.827A11.5,11.5,0,0,0,17.828,52.549c0-.18-.006-.354-.015-.526A8.12,8.12,0,0,0,19.854,49.91Z" transform="translate(0 -48)"/></svg>